<svg xmlns="http://www.w3.org/2000/svg" xmlns:xlink="http://www.w3.org/1999/xlink" width="1720.257" height="1080.001" viewBox="0 0 1720.257 1080.001">
  <defs>
    <linearGradient id="linear-gradient" x1="0.5" y1="0.685" x2="0.5" y2="1.488" gradientUnits="objectBoundingBox">
      <stop offset="0" stop-color="#100c22"/>
      <stop offset="0.622" stop-color="#1d4136"/>
      <stop offset="1" stop-color="#5c6b69"/>
    </linearGradient>
    <linearGradient id="linear-gradient-2" x1="0.555" y1="0.344" x2="0.032" y2="0.705" gradientUnits="objectBoundingBox">
      <stop offset="0" stop-color="#4bea9f"/>
      <stop offset="0.707" stop-color="#358362"/>
      <stop offset="1" stop-color="#152e31"/>
    </linearGradient>
    <linearGradient id="linear-gradient-3" x1="0.052" y1="0.759" x2="0.655" y2="0.251" gradientUnits="objectBoundingBox">
      <stop offset="0" stop-color="#100c22"/>
      <stop offset="0.394" stop-color="#1d4136"/>
      <stop offset="1" stop-color="#5c6b69"/>
    </linearGradient>
  </defs>
  <g id="Group_4" data-name="Group 4" transform="translate(-200.744 0)">
    <path id="Subtraction_1" data-name="Subtraction 1" d="M-2505,1080H-4138.484l-.011-.031c-.58-1.82-5.887-18.581-13.547-46.41-4.725-17.164-9.4-35.1-13.9-53.3-5.627-22.776-10.986-46.032-15.931-69.122-12.6-58.818-22.631-117.039-29.828-173.044-4.273-33.256-7.581-66.088-9.83-97.583-2.474-34.647-3.729-68.538-3.729-100.732s1.254-66.079,3.729-100.713c2.249-31.484,5.556-64.3,9.83-97.534,7.2-55.969,17.233-114.139,29.828-172.894,4.944-23.065,10.3-46.294,15.931-69.042,4.5-18.179,9.172-36.087,13.9-53.227C-4144.064,17.433-4138.708.7-4138.484,0h558.272a143.079,143.079,0,0,0-14.413,12.665,99.262,99.262,0,0,0-11.158,13.383,71.658,71.658,0,0,0-7.6,14.1,57.85,57.85,0,0,0-3.736,14.807,56.194,56.194,0,0,0,.114,13.349,64.76,64.76,0,0,0,3.414,13.872,85.078,85.078,0,0,0,6.908,14.393,120.646,120.646,0,0,0,10.6,14.911,160.109,160.109,0,0,0,18.846,19.156,209.039,209.039,0,0,0,22.295,16.679,283.561,283.561,0,0,0,25.088,14.511c8.371,4.312,17.53,8.568,27.223,12.649,16.739,7.049,35.784,13.9,58.225,20.946,19.8,6.216,39.65,11.791,58.848,17.183l.034.009c64.41,18.089,120.036,33.71,133.86,62.475a63.111,63.111,0,0,1,4.91,15.067,92.784,92.784,0,0,1,1.637,17.12c.1,11.336-1.432,24.172-4.678,39.242-2.707,12.562-6.691,26.951-12.179,43.99-4.9,15.2-10.515,31.07-15.95,46.422l0,.008c-7.564,21.364-15.385,43.456-21.435,64.22-3.258,11.18-5.754,21.082-7.631,30.273a201.369,201.369,0,0,0-3.907,28.018,105.707,105.707,0,0,0,2.617,29.024,166.425,166.425,0,0,0,10.98,32.376,227,227,0,0,0,19.129,33.917,273.537,273.537,0,0,0,27.063,33.648,304.175,304.175,0,0,0,44.554,38.848,322.231,322.231,0,0,0,56.149,32.1,334.712,334.712,0,0,0,32.293,12.42,346.267,346.267,0,0,0,35.036,9.416,363.323,363.323,0,0,0,37.727,5.971,387.977,387.977,0,0,0,40.366,2.088,425.752,425.752,0,0,0,50.4-3.063,418.7,418.7,0,0,1,49.3-3.193,267.019,267.019,0,0,1,32.449,1.866,188.156,188.156,0,0,1,27.1,5.287,145.306,145.306,0,0,1,22.541,8.245,129.078,129.078,0,0,1,18.757,10.737,134.491,134.491,0,0,1,15.755,12.765,172.165,172.165,0,0,1,13.533,14.328c8.456,9.973,16.114,20.911,23.519,31.489,25.344,36.2,51.55,73.632,117.609,89.161,10.587,2.489,20.385,5.216,29.122,8.1a209,209,0,0,1,22.642,8.864,129.332,129.332,0,0,1,17.082,9.493,86.768,86.768,0,0,1,12.442,9.992c13.9,13.6,17.9,28.213,21.759,42.347,2.195,8.034,4.268,15.623,8.034,23.007a56.463,56.463,0,0,0,7.1,10.77A60.925,60.925,0,0,0-2505,1079.492V1080Z" transform="translate(4426)" fill="url(#linear-gradient)"/>
    <path id="Subtraction_2" data-name="Subtraction 2" d="M-3312.534,1079.491h0a60.908,60.908,0,0,1-10.833-10.042,56.4,56.4,0,0,1-7.1-10.77c-3.766-7.382-5.839-14.969-8.034-23-3.863-14.139-7.855-28.754-21.76-42.351a86.783,86.783,0,0,0-12.442-9.992,129.293,129.293,0,0,0-17.082-9.493,208.949,208.949,0,0,0-22.642-8.864c-8.736-2.888-18.534-5.615-29.122-8.1-66.058-15.53-92.271-52.963-117.621-89.164l0-.006c-7.407-10.577-15.066-21.514-23.52-31.482a172.213,172.213,0,0,0-13.534-14.328,134.481,134.481,0,0,0-15.755-12.764,129.1,129.1,0,0,0-18.756-10.736,145.279,145.279,0,0,0-22.537-8.244,188.024,188.024,0,0,0-27.1-5.287A266.894,266.894,0,0,0-3712.813,783a418.725,418.725,0,0,0-49.3,3.193,425.963,425.963,0,0,1-50.4,3.063h-.029a387.939,387.939,0,0,1-40.337-2.085,363.368,363.368,0,0,1-37.727-5.968,346.282,346.282,0,0,1-35.035-9.412,334.71,334.71,0,0,1-32.292-12.417,322.189,322.189,0,0,1-56.146-32.092,304.144,304.144,0,0,1-44.552-38.842,273.552,273.552,0,0,1-27.069-33.654,227.026,227.026,0,0,1-19.132-33.924,166.46,166.46,0,0,1-10.982-32.383,105.752,105.752,0,0,1-2.618-29.03,201.379,201.379,0,0,1,3.907-28.017c1.876-9.189,4.372-19.091,7.63-30.273,6.05-20.761,13.871-42.853,21.435-64.217l.015-.043c5.431-15.341,11.047-31.2,15.938-46.389,5.489-17.039,9.472-31.428,12.179-43.99,3.247-15.068,4.777-27.9,4.679-39.243a92.815,92.815,0,0,0-1.638-17.12,63.1,63.1,0,0,0-4.911-15.067c-13.824-28.764-69.45-44.386-133.859-62.475l-.016,0c-19.2-5.393-39.062-10.97-58.867-17.188-22.441-7.046-41.487-13.9-58.225-20.946-9.693-4.082-18.853-8.338-27.223-12.649a283.541,283.541,0,0,1-25.088-14.511,209.064,209.064,0,0,1-22.3-16.679,160.085,160.085,0,0,1-18.845-19.156,120.622,120.622,0,0,1-10.6-14.911,85.076,85.076,0,0,1-6.908-14.393,64.739,64.739,0,0,1-3.414-13.872,56.17,56.17,0,0,1-.114-13.349,57.863,57.863,0,0,1,3.737-14.807,71.68,71.68,0,0,1,7.6-14.1,99.283,99.283,0,0,1,11.159-13.383A142.935,142.935,0,0,1-4387.745,0h14.5a141.121,141.121,0,0,0-14.218,12.49,97.894,97.894,0,0,0-11.008,13.2,70.643,70.643,0,0,0-7.5,13.9,57.032,57.032,0,0,0-3.686,14.6,55.353,55.353,0,0,0,.113,13.163,63.829,63.829,0,0,0,3.367,13.679,83.873,83.873,0,0,0,6.815,14.192,118.964,118.964,0,0,0,10.456,14.7,157.925,157.925,0,0,0,18.591,18.89,206.237,206.237,0,0,0,21.994,16.448,279.825,279.825,0,0,0,24.75,14.309c8.257,4.251,17.292,8.448,26.856,12.474,16.514,6.951,35.3,13.707,57.44,20.654,19.53,6.13,39.114,11.627,58.053,16.944l.035.01c63.542,17.838,118.418,33.242,132.055,61.608a62.19,62.19,0,0,1,4.844,14.858A91.456,91.456,0,0,1-4042.674,303c.1,11.179-1.413,23.837-4.616,38.7-2.67,12.388-6.6,26.577-12.015,43.378-4.83,14.99-10.375,30.645-15.737,45.784-7.462,21.069-15.178,42.854-21.147,63.328-3.214,11.026-5.677,20.791-7.527,29.853a198.471,198.471,0,0,0-3.854,27.629,104.191,104.191,0,0,0,2.58,28.61,164.021,164.021,0,0,0,10.824,31.913,223.731,223.731,0,0,0,18.857,33.433,269.679,269.679,0,0,0,26.679,33.17,300.014,300.014,0,0,0,43.954,38.324,317.926,317.926,0,0,0,55.4,31.668,330.257,330.257,0,0,0,31.864,12.254,341.794,341.794,0,0,0,34.572,9.29,358.584,358.584,0,0,0,37.228,5.892,382.887,382.887,0,0,0,39.833,2.06,420.181,420.181,0,0,0,49.723-3.02,413.212,413.212,0,0,1,48.639-3.149,263.5,263.5,0,0,1,32.011,1.84,185.668,185.668,0,0,1,26.739,5.214,143.428,143.428,0,0,1,22.237,8.13,127.373,127.373,0,0,1,18.5,10.588,132.651,132.651,0,0,1,15.542,12.587,169.771,169.771,0,0,1,13.35,14.129c8.341,9.833,15.9,20.62,23.2,31.051,25,35.7,50.854,72.608,116.022,87.922,10.444,2.454,20.11,5.143,28.729,7.991a206.284,206.284,0,0,1,22.337,8.74,127.6,127.6,0,0,1,16.852,9.361,85.634,85.634,0,0,1,12.274,9.853c13.717,13.408,17.656,27.821,21.466,41.759,2.166,7.924,4.211,15.408,7.927,22.688a55.632,55.632,0,0,0,7,10.621,60.094,60.094,0,0,0,10.688,9.9v15Z" transform="translate(5232.535 0.001)" fill="url(#linear-gradient-2)"/>
    <path id="Subtraction_3" data-name="Subtraction 3" d="M-3327.535,1064.491h0a60.094,60.094,0,0,1-10.687-9.9,55.65,55.65,0,0,1-7-10.621c-3.715-7.28-5.76-14.763-7.926-22.686-3.81-13.94-7.749-28.352-21.466-41.76a85.617,85.617,0,0,0-12.274-9.853,127.6,127.6,0,0,0-16.852-9.361,206.262,206.262,0,0,0-22.337-8.74c-8.622-2.849-18.287-5.537-28.729-7.991-65.167-15.315-91.027-52.228-116.035-87.926l-.011-.015c-7.3-10.427-14.858-21.208-23.2-31.035a169.921,169.921,0,0,0-13.351-14.129,132.686,132.686,0,0,0-15.542-12.587,127.409,127.409,0,0,0-18.5-10.587,143.413,143.413,0,0,0-22.234-8.129,185.592,185.592,0,0,0-26.734-5.214,263.416,263.416,0,0,0-32-1.84,413.244,413.244,0,0,0-48.639,3.149,420.381,420.381,0,0,1-49.722,3.02h-.029a382.8,382.8,0,0,1-39.8-2.057,358.511,358.511,0,0,1-37.227-5.888,341.692,341.692,0,0,1-34.57-9.286A330.257,330.257,0,0,1-3964.27,748.8a317.845,317.845,0,0,1-55.4-31.661,299.946,299.946,0,0,1-43.952-38.318,269.65,269.65,0,0,1-26.685-33.176,223.748,223.748,0,0,1-18.861-33.44,164.079,164.079,0,0,1-10.826-31.92,104.231,104.231,0,0,1-2.58-28.616,198.481,198.481,0,0,1,3.854-27.628c1.851-9.062,4.313-18.826,7.527-29.852,5.973-20.486,13.687-42.265,21.146-63.327,5.363-15.142,10.908-30.8,15.737-45.785,5.415-16.8,9.345-30.993,12.015-43.379,3.2-14.859,4.713-27.517,4.616-38.7a91.439,91.439,0,0,0-1.615-16.882,62.21,62.21,0,0,0-4.844-14.858c-13.638-28.364-68.513-43.769-132.054-61.606-18.946-5.318-38.536-10.817-58.089-16.954-22.139-6.948-40.927-13.7-57.439-20.654-9.567-4.027-18.6-8.224-26.856-12.473a279.7,279.7,0,0,1-24.75-14.309,206.2,206.2,0,0,1-21.995-16.447,158,158,0,0,1-18.592-18.89,119.122,119.122,0,0,1-10.456-14.7,83.936,83.936,0,0,1-6.815-14.193,63.848,63.848,0,0,1-3.368-13.679,55.381,55.381,0,0,1-.113-13.163,57.026,57.026,0,0,1,3.686-14.6,70.678,70.678,0,0,1,7.5-13.9,97.9,97.9,0,0,1,11.009-13.2A140.924,140.924,0,0,1-4388.248,0h14.385a129,129,0,0,0-12.774,11.919,91.2,91.2,0,0,0-9.839,12.555,67.548,67.548,0,0,0-6.645,13.187,55.888,55.888,0,0,0-3.193,13.816,54.962,54.962,0,0,0,.272,12.845,63.711,63.711,0,0,0,3.4,13.34,83.528,83.528,0,0,0,6.712,13.833,117.95,117.95,0,0,0,10.206,14.323,156.107,156.107,0,0,0,18.375,18.678,203.8,203.8,0,0,0,21.739,16.263,276.419,276.419,0,0,0,24.461,14.148c8.164,4.205,17.095,8.355,26.544,12.333,16.319,6.872,34.889,13.552,56.771,20.423,19.313,6.064,38.68,11.5,57.408,16.762,62.8,17.638,117.041,32.869,130.521,60.916a61.538,61.538,0,0,1,4.787,14.69,90.472,90.472,0,0,1,1.6,16.691c.1,11.053-1.4,23.569-4.562,38.261-2.64,12.251-6.524,26.281-11.875,42.89-4.773,14.818-10.253,30.3-15.552,45.267-7.376,20.835-15,42.376-20.9,62.621-3.177,10.9-5.61,20.558-7.439,29.518a196.349,196.349,0,0,0-3.809,27.319,103.064,103.064,0,0,0,2.552,28.3,162.277,162.277,0,0,0,10.706,31.567,221.363,221.363,0,0,0,18.651,33.07,266.692,266.692,0,0,0,26.387,32.808,296.579,296.579,0,0,0,43.441,37.878,314.193,314.193,0,0,0,54.748,31.3,326.4,326.4,0,0,0,31.487,12.11,337.7,337.7,0,0,0,34.161,9.181,354.289,354.289,0,0,0,36.785,5.822,378.209,378.209,0,0,0,39.358,2.036,415.119,415.119,0,0,0,49.144-2.986,408.256,408.256,0,0,1,48.073-3.113,260.344,260.344,0,0,1,31.639,1.819,183.4,183.4,0,0,1,26.428,5.155,141.683,141.683,0,0,1,21.978,8.038,125.851,125.851,0,0,1,18.289,10.469,131.128,131.128,0,0,1,15.361,12.446,167.829,167.829,0,0,1,13.194,13.97c8.244,9.722,15.711,20.388,22.932,30.7,24.71,35.3,50.261,71.792,114.672,86.935,10.322,2.427,19.875,5.085,28.394,7.9a203.763,203.763,0,0,1,22.077,8.642,126.043,126.043,0,0,1,16.655,9.256,84.618,84.618,0,0,1,12.131,9.742c13.557,13.258,17.449,27.508,21.214,41.289,1.883,6.893,3.661,13.4,6.568,19.8a57.975,57.975,0,0,0,5.315,9.39,54.782,54.782,0,0,0,7.786,8.891v19.475Z" transform="translate(5247.535 0.001)" fill="url(#linear-gradient-3)"/>
  </g>
</svg>
