<svg id="_033-linkedin" data-name="033-linkedin" xmlns="http://www.w3.org/2000/svg" xmlns:xlink="http://www.w3.org/1999/xlink" width="22.95" height="23.694" viewBox="0 0 22.95 23.694">
  <defs>
    <radialGradient id="radial-gradient" cx="0.5" cy="0.5" r="0.3" gradientTransform="matrix(2.78, 0, 0, 2.815, -0.89, -0.908)" gradientUnits="objectBoundingBox">
      <stop offset="0" stop-color="#3bcd89"/>
      <stop offset="1" stop-color="#152e31"/>
    </radialGradient>
    <radialGradient id="radial-gradient-2" cx="0.5" r="0.833" gradientTransform="matrix(1, 0, 0, 1.013, 0, -0.006)" xlink:href="#radial-gradient"/>
    <radialGradient id="radial-gradient-3" cx="0.5" r="0.79" gradientTransform="matrix(1.054, 0, 0, 1.068, -0.027, -0.034)" xlink:href="#radial-gradient"/>
  </defs>
  <path id="Path_4" data-name="Path 4" d="M5.155,160.664H.694a.694.694,0,0,0-.694.694v14.871a.694.694,0,0,0,.694.694H5.155a.694.694,0,0,0,.694-.694V161.358A.694.694,0,0,0,5.155,160.664Zm0,0" transform="translate(0 -153.229)" fill="url(#radial-gradient)"/>
  <path id="Path_5" data-name="Path 5" d="M2.925,0A2.925,2.925,0,1,0,5.849,2.925,2.928,2.928,0,0,0,2.925,0Zm0,0" fill="url(#radial-gradient-2)"/>
  <path id="Path_6" data-name="Path 6" d="M169.538,158.543a6.665,6.665,0,0,0-3.026.73.694.694,0,0,0-.691-.632h-4.461a.694.694,0,0,0-.694.694v14.871a.694.694,0,0,0,.694.694h4.461a.694.694,0,0,0,.694-.694v-8.179a1.908,1.908,0,1,1,3.816,0v8.179a.694.694,0,0,0,.694.694h4.461a.694.694,0,0,0,.694-.694v-9.021A6.649,6.649,0,0,0,169.538,158.543Zm0,0" transform="translate(-153.229 -151.206)" fill="url(#radial-gradient-3)"/>
</svg>
