<svg xmlns="http://www.w3.org/2000/svg" width="65.492" height="53.794" viewBox="0 0 65.492 53.794">
  <g id="Josh_s_Logo-05" data-name="Josh&apos;s Logo-05" transform="translate(-59.5 -288.861)">
    <path id="Path_9" data-name="Path 9" d="M60.285,337.3a22.882,22.882,0,0,0,6.254,3.587c3.789,1.1,9.947,1.229,14.638-2.852,2.6-2.262,4.776-5.5,4.776-8.4V289.9H59.5" transform="translate(0 -0.023)" fill="none" stroke="#4bea9f" stroke-miterlimit="10" stroke-width="2"/>
    <path id="Path_10" data-name="Path 10" d="M59.5,290H78.573v36.364a7.455,7.455,0,0,1-2.7,6.342,8.91,8.91,0,0,1-9.762-.728" transform="translate(0 -0.12)" fill="none" stroke="#4bea9f" stroke-miterlimit="10" stroke-width="2"/>
    <path id="Path_11" data-name="Path 11" d="M1031.142,299.884s-1.818-6.023-9.606-8.949-14.627.863-16.943,3.494-4.84,5.6-4.524,12.007c.4,8.154,8.313,11.183,10,12.06s12.422,3.992,15.05,9.095c2.66,5.167.33,8.992-2.422,11.46-2.518,2.259-9.535,3.64-13.843,1.14" transform="translate(-907.142 0)" fill="none" stroke="#4bea9f" stroke-miterlimit="10" stroke-width="2"/>
    <path id="Path_12" data-name="Path 12" d="M1000,334.516s1.818,6.023,9.606,8.949,14.627-.863,16.943-3.494,4.84-5.6,4.524-12.007c-.4-8.154-8.313-11.183-10-12.06s-12.422-3.992-15.05-9.095c-2.66-5.167-.33-8.992,2.422-11.46,2.518-2.259,9.744-3.551,14.052-1.051" transform="translate(-907.101 -2.952)" fill="none" stroke="#4bea9f" stroke-miterlimit="10" stroke-width="2"/>
  </g>
</svg>
